# xmcd
# 
# Track frame offsets:
#     150
#     17021
#     35384
#     48454
#     58262
#     73634
#     88157
#     99809
#     111196
#     125125
#     134443
#     144665
#     154206
#     168477
#     182941
#     196102
#     207621
#     219694
#     238291
#     246711
# 
# Disc length: 3428
# 
# Revision: 3
# Processed by: cddbd v1.5.2PL0 Copyright (c) Steve Scherf et al.
# Submitted via: fre:ac v1.0.31
# 
DISCID=3e0d6214
DTITLE=Various Artist - Country Gold (4 CD-Box) CD 1
DYEAR=2002
DGENRE=Country
TTITLE0=Willie Nelson - I Let My Mind Wonder
TTITLE1=The Osmond Brothers - If Every Man Had A Woman Like You
TTITLE2=Ralph Stanley - White Dove
TTITLE3=Patsy Cline - Turn The Cards Slowly
TTITLE4=Nitty Gritty Dirt Band - Dance Little Jean (Live)
TTITLE5=George Jones - It's Funny What A Fool Will Do
TTITLE6=Carl Perkins - Lucille
TTITLE7=Barbara Fairchild - Colour My World
TTITLE8=Danny Davis And The Nashville Brass - Blue Bayou (Live)
TTITLE9=Mickey Gilley - Keepin' On
TTITLE10=Gail Davies - I'll Be There If You Ever Want Me (Live)
TTITLE11=Don Williams - Endless Sleep
TTITLE12=Johnny Paycheck - Someone To Give My Love To
TTITLE13=Merle Haggard - TB. Blues (Live)
TTITLE14=Porter Wagoner - Not A Cloud In The Sky
TTITLE15=Carl Perkins - Born To Boogie
TTITLE16=Johnny Paycheck - I'll Follow You Up To Our Cloud
TTITLE17=Merle Haggard - Foot Lights (Live)
TTITLE18=Lee Greenwood - Ring On Her Finger (Live)
TTITLE19=Patsy Cline - I Don't Wanna
EXTD=204880-203\nTIM The International Music Company AG, Hamburg, Germany
EXTT0=
EXTT1=
EXTT2=
EXTT3=
EXTT4=
EXTT5=
EXTT6=
EXTT7=
EXTT8=
EXTT9=
EXTT10=
EXTT11=
EXTT12=
EXTT13=
EXTT14=
EXTT15=
EXTT16=
EXTT17=
EXTT18=
EXTT19=
PLAYORDER=
